# xmcd
#
# Track frame offsets: 
#        150
#        11060
#        25525
#        34465
#        50655
#        62645
#        80347
#        89952
#        104735
#        114482
#
# Disc length: 1764 seconds
#
# Revision: 2
# Processed by: cddbd v1.4PL0 Copyright (c) Steve Scherf et al.
# Submitted via: ExactAudioCopy v0.95a4
#
DISCID=8706e20a
DTITLE=Various Artist - Nashville's Greatest Christmas Hits Vol II
DYEAR=1988
DGENRE=Country
TTITLE0=Pretty Paper-Willie Nelson
TTITLE1=It Came Upon A Midnight Clear-Tammy Wynette
TTITLE2=O Holy Night-Charlie Rich
TTITLE3=The First Noel-B.J. Thomas
TTITLE4=Let It Snow, Let It Snow, Let It Snow-Chet Atkins C.G.P.
TTITLE5=Messiah - Allelulia Chorus-Larry Gatlin and The Gatlin Bros Band
TTITLE6=Soon It Will Be Christmas Day-Lynn Anderson
TTITLE7=I'll Be Home For Christmas-Micky Gilley
TTITLE8=Winter Wonderland-Slim Whitman
TTITLE9=The Little Drummer Boy-Ray Price
EXTD=
EXTT0=
EXTT1=
EXTT2=
EXTT3=
EXTT4=
EXTT5=
EXTT6=
EXTT7=
EXTT8=
EXTT9=
PLAYORDER=
